<svg xmlns="http://www.w3.org/2000/svg" viewBox="0 0 120 100" fill="none" aria-hidden="true">
  <rect x="4" y="8" width="112" height="84" rx="12" stroke="#1a1a1a" stroke-width="6"/>
  <!-- Top-left: gauge -->
  <path d="M14 48 A20 20 0 0 1 54 48" stroke="#1a1a1a" stroke-width="4.5" stroke-linecap="round"/>
  <line x1="34" y1="48" x2="34" y2="30" stroke="#1a1a1a" stroke-width="4.5" stroke-linecap="round"/>
  <line x1="34" y1="48" x2="46" y2="34" stroke="#1a1a1a" stroke-width="4.5" stroke-linecap="round"/>
  <line x1="18" y1="42" x2="20" y2="44" stroke="#1a1a1a" stroke-width="2.5" stroke-linecap="round"/>
  <line x1="22" y1="34" x2="24" y2="36" stroke="#1a1a1a" stroke-width="2.5" stroke-linecap="round"/>
  <line x1="28" y1="28" x2="30" y2="30" stroke="#1a1a1a" stroke-width="2.5" stroke-linecap="round"/>
  <line x1="36" y1="26" x2="38" y2="28" stroke="#1a1a1a" stroke-width="2.5" stroke-linecap="round"/>
  <line x1="44" y1="28" x2="46" y2="30" stroke="#1a1a1a" stroke-width="2.5" stroke-linecap="round"/>
  <line x1="50" y1="34" x2="52" y2="36" stroke="#1a1a1a" stroke-width="2.5" stroke-linecap="round"/>
  <line x1="54" y1="42" x2="56" y2="44" stroke="#1a1a1a" stroke-width="2.5" stroke-linecap="round"/>
  <!-- Top-right: status rows -->
  <line x1="66" y1="30" x2="84" y2="30" stroke="#1a1a1a" stroke-width="4.5" stroke-linecap="round"/>
  <circle cx="92" cy="30" r="4" fill="#1a1a1a"/>
  <line x1="66" y1="44" x2="84" y2="44" stroke="#1a1a1a" stroke-width="4.5" stroke-linecap="round"/>
  <circle cx="92" cy="44" r="4" fill="#1a1a1a"/>
  <!-- Bottom-left: text lines -->
  <line x1="14" y1="66" x2="48" y2="66" stroke="#1a1a1a" stroke-width="4.5" stroke-linecap="round"/>
  <line x1="14" y1="76" x2="48" y2="76" stroke="#1a1a1a" stroke-width="4.5" stroke-linecap="round"/>
  <line x1="14" y1="86" x2="48" y2="86" stroke="#1a1a1a" stroke-width="4.5" stroke-linecap="round"/>
  <!-- Bottom-right: bar chart -->
  <line x1="64" y1="88" x2="108" y2="88" stroke="#1a1a1a" stroke-width="4.5" stroke-linecap="round"/>
  <rect x="68" y="74" width="8" height="14" fill="#1a1a1a"/>
  <rect x="80" y="64" width="8" height="24" fill="#1a1a1a"/>
  <rect x="92" y="78" width="8" height="10" fill="#1a1a1a"/>
  <rect x="104" y="56" width="8" height="32" fill="#1a1a1a"/>
</svg>
